<?xml version="1.0" encoding="UTF-8" standalone="no"?>
<!-- Created with Inkscape (http://www.inkscape.org/) -->

<svg
   xmlns:dc="http://purl.org/dc/elements/1.1/"
   xmlns:cc="http://creativecommons.org/ns#"
   xmlns:rdf="http://www.w3.org/1999/02/22-rdf-syntax-ns#"
   xmlns:svg="http://www.w3.org/2000/svg"
   xmlns="http://www.w3.org/2000/svg"
   xmlns:sodipodi="http://sodipodi.sourceforge.net/DTD/sodipodi-0.dtd"
   xmlns:inkscape="http://www.inkscape.org/namespaces/inkscape"
   width="32"
   height="32"
   viewBox="0 0 8.4666665 8.4666669"
   version="1.1"
   id="svg8"
   inkscape:export-filename="C:\butano\homebrew\too-butano\Source Files\Spell Icons\drench.png"
   inkscape:export-xdpi="96"
   inkscape:export-ydpi="96"
   shape-rendering="crispEdges"
   inkscape:version="0.92.4 (5da689c313, 2019-01-14)"
   sodipodi:docname="template.svg">
  <defs
     id="defs2" />
  <sodipodi:namedview
     id="base"
     pagecolor="#ffffff"
     bordercolor="#666666"
     borderopacity="1.0"
     inkscape:pageopacity="0.0"
     inkscape:pageshadow="2"
     inkscape:zoom="5.6"
     inkscape:cx="50.453702"
     inkscape:cy="6.9056124"
     inkscape:document-units="mm"
     inkscape:current-layer="layer1"
     showgrid="false"
     units="px"
     inkscape:window-width="1920"
     inkscape:window-height="1017"
     inkscape:window-x="-8"
     inkscape:window-y="-8"
     inkscape:window-maximized="1" />
  <metadata
     id="metadata5">
    <rdf:RDF>
      <cc:Work
         rdf:about="">
        <dc:format>image/svg+xml</dc:format>
        <dc:type
           rdf:resource="http://purl.org/dc/dcmitype/StillImage" />
        <dc:title></dc:title>
      </cc:Work>
    </rdf:RDF>
  </metadata>
  <g
     inkscape:label="Layer 1"
     inkscape:groupmode="layer"
     id="layer1"
     transform="translate(0,-288.53332)">
    <ellipse
       style="opacity:0.98000004;fill:#002a3e;fill-opacity:1;fill-rule:nonzero;stroke:#ff9000;stroke-width:0.52916667;stroke-linecap:butt;stroke-linejoin:miter;stroke-miterlimit:4;stroke-dasharray:none;stroke-dashoffset:3.02362204;stroke-opacity:1;paint-order:markers stroke fill"
       id="path13513-3"
       cx="4.2333298"
       cy="292.76666"
       rx="3.9484603"
       ry="3.9092793"
       inkscape:export-xdpi="389.47134"
       inkscape:export-ydpi="389.47134" />
    <ellipse
       style="opacity:0.98000004;fill:#c4f6ff;fill-opacity:0.63999999;fill-rule:nonzero;stroke:#ffbb00;stroke-width:0.26458333;stroke-linecap:butt;stroke-linejoin:miter;stroke-miterlimit:4;stroke-dasharray:none;stroke-dashoffset:3.02362204;stroke-opacity:1;paint-order:fill markers stroke"
       id="path13513"
       cx="4.2333307"
       cy="292.76666"
       rx="3.5189486"
       ry="3.4840288"
       inkscape:export-xdpi="389.47134"
       inkscape:export-ydpi="389.47134" />
    <rect
       style="opacity:0.98000004;fill:none;fill-opacity:1;fill-rule:nonzero;stroke:#0076f9;stroke-width:0.26458333;stroke-linecap:butt;stroke-linejoin:miter;stroke-miterlimit:4;stroke-dasharray:none;stroke-dashoffset:3.02362204;stroke-opacity:1;paint-order:fill markers stroke"
       id="rect13451"
       width="4.8853116"
       height="4.8132081"
       x="207.56805"
       y="201.61728"
       transform="rotate(45)"
       inkscape:export-xdpi="389.47134"
       inkscape:export-ydpi="389.47134" />
    <circle
       style="opacity:0.98000004;fill:#324861;fill-opacity:1;fill-rule:nonzero;stroke:#030303;stroke-width:0.26458333;stroke-linecap:butt;stroke-linejoin:miter;stroke-miterlimit:4;stroke-dasharray:none;stroke-dashoffset:3.02362204;stroke-opacity:1;paint-order:fill markers stroke"
       id="path13455"
       cx="4.2333322"
       cy="292.76666"
       r="2.1001675"
       inkscape:export-xdpi="389.47134"
       inkscape:export-ydpi="389.47134" />
    <path
       id="path13513-3-9"
       style="opacity:0.98000004;fill:none;fill-opacity:1;fill-rule:nonzero;stroke:#684e82;stroke-width:0.30626556;stroke-linecap:butt;stroke-linejoin:miter;stroke-miterlimit:4;stroke-dasharray:none;stroke-dashoffset:3.02362204;stroke-opacity:1;paint-order:fill markers stroke"
       d="M 80.494105,24.470274 A 18.888479,18.701044 0 0 1 61.605626,43.171319 18.888479,18.701044 0 0 1 42.717147,24.470274 18.888479,18.701044 0 0 1 61.605626,5.7692302 18.888479,18.701044 0 0 1 80.494105,24.470274 Z m -2.054681,0.03341 A 16.833797,16.666752 0 0 1 61.605626,41.170435 16.833797,16.666752 0 0 1 44.771829,24.503684 16.833797,16.666752 0 0 1 61.605626,7.8369322 16.833797,16.666752 0 0 1 78.439424,24.503684 Z m -13.449252,0.06183 h -7.198214 l 3.599107,-6.233837 z M 57.785717,20.55333 h 7.198214 l -3.599107,6.233836 z m 3.620587,0.397842 v 7.198214 l -6.233837,-3.599107 z m -4.012184,7.204455 v -7.198215 l 6.233836,3.599107 z m 8.024368,-7.210697 v 7.198214 l -6.233837,-3.599107 z m -4.012183,7.204456 v -7.198215 l 6.233836,3.599107 z m 0.23764,12.888252 -15.711333,-11.414951 6.001195,-18.469779 19.420275,-10e-7 6.001196,18.469779 z m 9.487202,-16.519863 a 9.921875,9.921875 0 0 1 -9.921875,9.921875 9.921875,9.921875 0 0 1 -9.921875,-9.921875 9.921875,9.921875 0 0 1 9.921875,-9.921875 9.921875,9.921875 0 0 1 9.921875,9.921875 z M 61.326306,8.6325492 77.646191,24.952435 61.567175,41.031451 45.247289,24.711565 Z M 64.996417,28.5777 h -7.198215 l 3.599107,-6.233837 z m -7.204459,-4.01218 h 7.198214 l -3.599107,6.233836 z m 3.599105,-6.264317 6.249079,6.249078 -6.249077,6.249077 -6.249079,-6.249079 z m 6.290719,6.107632 a 6.3434286,6.3434286 0 0 1 -6.343429,6.343429 6.3434286,6.3434286 0 0 1 -6.343428,-6.343429 6.3434286,6.3434286 0 0 1 6.343428,-6.343429 6.3434286,6.3434286 0 0 1 6.343429,6.343429 z m 5.071781,6.444934 H 49.899061 L 61.326313,11.807552 Z"
       inkscape:connector-curvature="0" />
    <rect
       style="opacity:0.98000004;fill:none;fill-opacity:1;fill-rule:nonzero;stroke:#05a7e4;stroke-width:0.26458333;stroke-linecap:butt;stroke-linejoin:miter;stroke-miterlimit:4;stroke-dasharray:none;stroke-dashoffset:3.02362204;stroke-opacity:1;paint-order:fill markers stroke"
       id="rect13451-4"
       width="4.8853116"
       height="4.8132081"
       x="290.32401"
       y="-6.6399369"
       transform="rotate(90)"
       inkscape:export-xdpi="389.47134"
       inkscape:export-ydpi="389.47134" />
  </g>
  <g
     inkscape:groupmode="layer"
     id="layer2"
     inkscape:label="Layer 2">
    <g
       transform="matrix(0.93015064,0,0,0.79889133,-11.218164,-230.75341)"
       id="g18578"
       inkscape:export-xdpi="389.47134"
       inkscape:export-ydpi="389.47134">
      <path
         id="path14221"
         d="m 16.16174,296.35912 c -0.795246,-0.1393 -1.349352,-0.92909 -1.30415,-1.71889 -0.04721,-1.25828 0.963933,-2.32871 2.12214,-2.67008 0.370486,-0.16146 0.361151,0.0181 0.07674,0.20298 -0.35243,0.43599 -0.01178,1.01373 0.33798,1.33179 0.403526,0.37061 0.829259,0.82305 0.770529,1.41854 -0.0099,0.8666 -0.872756,1.55163 -1.716422,1.46114 -0.09601,-6e-4 -0.192767,-0.004 -0.286815,-0.0255 z"
         style="fill:#a1dae8;stroke-width:0.01994433"
         inkscape:connector-curvature="0" />
      <path
         id="path14219"
         d="m 16.633389,294.82195 c 0.465241,-0.28585 0.296466,-0.91623 0.05723,-1.29836 -0.178766,-0.34314 -0.30662,-0.77391 -0.0914,-1.13181 -0.629195,0.51956 -0.984828,1.44338 -0.698738,2.23484 0.142503,0.23669 0.488763,0.33783 0.732907,0.19533 z"
         style="fill:#a1dae8;stroke-width:0.01994433"
         inkscape:connector-curvature="0" />
      <path
         id="path14207"
         d="m 16.171712,296.3329 c -0.8128,-0.13441 -1.359311,-0.96189 -1.286153,-1.75959 -0.01737,-1.31643 1.12197,-2.38276 2.349761,-2.64205 -0.311413,0.27607 -0.50549,0.80496 -0.186117,1.18806 0.350538,0.56469 1.109263,0.92473 1.084833,1.67593 0.08973,0.91225 -0.834059,1.67249 -1.710667,1.56799 -0.08445,-0.004 -0.16893,-0.0123 -0.251657,-0.0303 z"
         style="fill:#67cde3;stroke-width:0.01994433"
         inkscape:connector-curvature="0" />
      <path
         id="path14205"
         d="m 16.621943,294.85969 c 0.485601,-0.27652 0.361161,-0.93059 0.10132,-1.32311 -0.284538,-0.34532 -0.213598,-0.99457 -0.08093,-1.22348 -0.682743,0.54604 -1.090209,1.54705 -0.738078,2.38468 0.18409,0.18156 0.473547,0.2769 0.717692,0.16191 z"
         style="fill:#67cde3;stroke-width:0.01994433"
         inkscape:connector-curvature="0" />
      <path
         id="path14137"
         d="m 16.649576,294.8439 c 0.438414,-0.24981 0.352993,-0.85217 0.138454,-1.22844 -0.209635,-0.38259 -0.411599,-0.90858 -0.08406,-1.28658 0.173635,-0.28325 -0.382148,0.22823 -0.451375,0.35852 -0.425198,0.53973 -0.632538,1.28242 -0.404385,1.94861 0.182848,0.22781 0.529939,0.36273 0.801366,0.20789 z"
         style="fill:#5ab1d6;stroke-width:0.01994433"
         inkscape:connector-curvature="0" />
      <path
         inkscape:connector-curvature="0"
         id="path13779"
         d="m 16.277294,296.24527 c -0.942726,-0.0879 -1.651394,-1.12663 -1.405903,-2.03749 0.132899,-0.95003 0.820121,-1.78808 1.708033,-2.13878 0.219295,-0.22159 0.48099,0.21578 0.260306,0.38177 -0.08424,0.32604 0.116313,0.64412 0.327748,0.87651 0.29232,0.3153 0.675166,0.5777 0.817284,1.00292 0.210855,0.52861 1.21e-4,1.15155 -0.414902,1.51907 -0.340156,0.31706 -0.829414,0.49834 -1.292566,0.396 z"
         style="fill:#0076f9;fill-opacity:1;stroke-width:0.01994433" />
      <path
         inkscape:connector-curvature="0"
         id="path13767"
         d="m 16.331267,296.33131 c -0.306204,-0.005 -0.588683,-0.15727 -0.821034,-0.34672 0.05223,-0.22581 -0.0023,-0.48585 -0.177001,-0.64621 -0.269962,-0.52508 -0.163845,-1.15037 0.04007,-1.6785 0.09169,-0.24109 0.212438,-0.47318 0.264972,-0.72749 0.19635,-0.41497 0.643847,-0.60326 1.033549,-0.79088 0.162913,-0.26369 0.471882,0.17121 0.218019,0.29706 -0.10207,0.26867 0.04132,0.55483 0.188246,0.77883 0.271857,0.4016 0.728122,0.65611 0.933243,1.10544 0.295129,0.69336 -0.06379,1.58972 -0.766411,1.8736 -0.28534,0.12224 -0.604249,0.18989 -0.913648,0.13487 z"
         style="fill:#05a7e4;stroke-width:0.01994433" />
      <path
         inkscape:connector-curvature="0"
         id="path13765"
         d="m 16.075647,295.13026 c 0.07934,-0.09 -0.05881,0.0166 0,0 z"
         style="fill:#05a7e4;stroke-width:0.01994433" />
      <path
         inkscape:connector-curvature="0"
         id="path13763"
         d="m 16.012157,295.05725 c 0.147244,0.0122 -0.03806,-0.11473 0,0 z"
         style="fill:#05a7e4;stroke-width:0.01994433" />
      <path
         inkscape:connector-curvature="0"
         id="path13759"
         d="m 16.725167,293.34803 c -0.100055,0.10798 -0.04673,-0.0922 0,0 z"
         style="fill:#05a7e4;stroke-width:0.01994433" />
      <path
         inkscape:connector-curvature="0"
         id="path13757"
         d="m 15.732937,294.86416 c 0.141427,-0.0532 -0.116627,-0.0665 0,0 z"
         style="fill:#05a7e4;stroke-width:0.01994433" />
      <path
         inkscape:connector-curvature="0"
         id="path13761"
         d="m 15.941337,294.93015 c 0.222754,-0.1818 0.508765,0.0949 0.741679,-0.0516 0.222427,-0.11731 0.344082,-0.40182 0.264292,-0.64221 0.226255,-0.0171 0.23764,0.33031 0.454534,0.32444 0.219028,-0.0678 0.251362,-0.35341 0.169766,-0.53776 -0.209099,-0.46527 -0.703457,-0.69235 -1.030069,-1.05992 -0.04104,-0.14198 0.124026,-0.50572 -0.14282,-0.45543 -0.235568,0.11549 -0.257906,0.42014 -0.421611,0.60361 -0.197295,0.31457 -0.504561,0.61359 -0.477258,1.01482 0.0054,0.31678 0.158601,0.64465 0.441487,0.804 z"
         style="fill:#ffffff;fill-opacity:1;stroke-width:0.01994433" />
      <path
         inkscape:connector-curvature="0"
         id="path13755"
         d="m 15.595197,294.70964 c -0.08289,-0.1043 -0.05174,0.0999 0,0 z"
         style="fill:#05a7e4;stroke-width:0.01994433" />
      <path
         id="path14157"
         d="m 16.428641,295.30649 c -0.274912,-0.0379 -0.786181,-0.79853 -0.214448,-0.40371 0.362211,0.20938 0.739798,-0.31426 0.783507,-0.4463 0.09521,0.39127 0.154236,1.02083 -0.470973,0.86849 z"
         style="fill:#066ec5;stroke-width:0.01994433"
         inkscape:connector-curvature="0" />
    </g>
  </g>
</svg>
